<?xml version="1.0" encoding="UTF-8"?>
<svg id="Layer_1" data-name="Layer 1" xmlns="http://www.w3.org/2000/svg" xmlns:xlink="http://www.w3.org/1999/xlink" viewBox="0 0 841.89 595.28">
  <defs>
    <style>
      .cls-1 {
        fill: url(#linear-gradient-10);
      }

      .cls-1, .cls-2, .cls-3, .cls-4, .cls-5, .cls-6, .cls-7, .cls-8, .cls-9, .cls-10 {
        fill-rule: evenodd;
      }

      .cls-11 {
        fill: #303030;
      }

      .cls-2 {
        fill: url(#linear-gradient-3);
      }

      .cls-3 {
        fill: url(#linear-gradient-5);
      }

      .cls-4 {
        fill: url(#linear-gradient-2);
      }

      .cls-5 {
        fill: url(#linear-gradient-9);
      }

      .cls-6 {
        fill: url(#linear-gradient-6);
      }

      .cls-7 {
        fill: url(#linear-gradient-4);
      }

      .cls-8 {
        fill: url(#linear-gradient-7);
      }

      .cls-9 {
        fill: url(#linear-gradient-8);
      }

      .cls-10 {
        fill: url(#linear-gradient);
      }
    </style>
    <linearGradient id="linear-gradient" x1="135.49" y1="310" x2="135.49" y2="223.66" gradientUnits="userSpaceOnUse">
      <stop offset="0" stop-color="#2a4cb7"/>
      <stop offset="1" stop-color="#3a9eec"/>
    </linearGradient>
    <linearGradient id="linear-gradient-2" x1="396.34" y1="310" x2="396.34" y2="223.66" xlink:href="#linear-gradient"/>
    <linearGradient id="linear-gradient-3" x1="304.11" y1="310" x2="304.11" y2="223.66" xlink:href="#linear-gradient"/>
    <linearGradient id="linear-gradient-4" x1="210.85" y1="310" x2="210.85" y2="223.66" xlink:href="#linear-gradient"/>
    <linearGradient id="linear-gradient-5" x1="217.09" y1="310" x2="217.09" y2="223.66" xlink:href="#linear-gradient"/>
    <linearGradient id="linear-gradient-6" x1="244.16" y1="310" x2="244.16" y2="223.66" xlink:href="#linear-gradient"/>
    <linearGradient id="linear-gradient-7" x1="205.32" y1="310" x2="205.32" y2="223.66" xlink:href="#linear-gradient"/>
    <linearGradient id="linear-gradient-8" x1="612.79" y1="310" x2="612.79" y2="223.66" xlink:href="#linear-gradient"/>
    <linearGradient id="linear-gradient-9" x1="697.44" y1="310" x2="697.44" y2="223.66" xlink:href="#linear-gradient"/>
    <linearGradient id="linear-gradient-10" x1="530.8" y1="310" x2="530.8" y2="223.66" xlink:href="#linear-gradient"/>
  </defs>
  <g>
    <path class="cls-10" d="M165.27,289.18l.4-2.61v-.02s.24-1.51.24-1.51v-.05s6.98-45.48,6.98-45.48h-23.39l-2.34,13.2-4.67,26.27s0,0,0,0c0,0-.03.18-.07.44l-.46,2.58c-1.45,6.7-7.83,11.55-14.96,11.55-.02,0-.04,0-.06,0h-26.18l-2.64,18.45h36.57l.16-.12c.19,0,.38,0,.57,0,14.13,0,26.04-9.53,29.63-22.52l.23-.17Z"/>
    <path class="cls-4" d="M417.95,241.2h-35.8c-15.16,0-28.74,12.29-30.33,27.45l-1.68,15.98c-1.58,15.16,9.41,27.45,24.58,27.45h35.8c15.16,0,28.74-12.29,30.32-27.45l1.68-15.98c1.58-15.16-9.42-27.45-24.58-27.45ZM419.06,272.55l-.82,8.17c-.78,7.75-7.46,14.03-14.93,14.03h-17.62c-7.46,0-12.88-6.29-12.1-14.03l.82-8.17c.78-7.75,7.47-14.03,14.93-14.03h17.62c7.46,0,12.87,6.28,12.09,14.03Z"/>
    <path class="cls-2" d="M262.37,268.65l-1.67,15.99c-1.59,15.16,9.41,27.45,24.57,27.45h40.71c6.43,0,11.89-4.71,12.83-11.07l.93-6.26,1.27-8.58,1.89-12.74h-34.08l-6.37,12.74h17.92l-1.27,8.58h-22.85c-7.46,0-12.88-6.28-12.09-14.03l.82-8.17c.78-7.75,7.47-14.03,14.93-14.03h45.21l2.57-17.33h-54.98c-15.16,0-28.74,12.29-30.33,27.45Z"/>
    <g>
      <path class="cls-7" d="M220.67,295.29c0,5.23,1.11,10.52,3.56,15.86h-26.75c1.62-5.88,4.23-11.34,7.68-16.42h15.52c0,.18,0,.38,0,.56Z"/>
      <path class="cls-3" d="M226.77,273.3c-.83,1.54-1.58,3.09-2.24,4.64-.67,1.55-1.26,3.11-1.76,4.67-.97,2.99-1.62,5.99-1.91,9h-13.45c5.12-6.69,11.71-12.74,19.37-18.31Z"/>
      <path class="cls-6" d="M245.15,266.92h0c1.2-2.79,2.8-5.45,4.89-7.96-2.06,1.6-3.93,3.23-5.6,4.86-.65.63-1.26,1.27-1.85,1.91-7.33,7.92-10.28,16.2-9.34,24.8.05.48.12.96.19,1.44.15.96.35,1.92.6,2.89.37,1.45.84,2.91,1.42,4.38.38.98.82,1.96,1.29,2.95.48.99,1,1.98,1.56,2.97,1.13,1.99,2.44,3.99,3.92,6h13.02l-9.21-40.34-.89-3.9Z"/>
      <path class="cls-8" d="M205.96,278.37c1.94-1.55,3.94-3.03,5.98-4.44,1.36-.94,2.75-1.85,4.16-2.73,5.63-3.51,11.63-6.53,18.01-9.02,1.59-.62,3.21-1.21,4.86-1.77,1.44-.49,2.89-.95,4.37-1.39,2.34-.7,4.73-1.33,7.17-1.9l-7.63-.08-3.7-16.21h-31.37l-9.69,14.29-9.69,14.29-28.32,41.75h17.5c7.92-13.02,17.32-24.01,28.34-32.79Z"/>
    </g>
    <g>
      <path class="cls-9" d="M583.01,262.32l-.4,2.61v.02s-.24,1.51-.24,1.51v.05s-6.98,45.48-6.98,45.48h23.39l2.34-13.2,4.67-26.27s0,0,0,0c0,0,.03-.18.07-.44l.46-2.58c1.45-6.7,7.83-11.55,14.96-11.55.02,0,.04,0,.06,0h26.18l2.64-18.45h-36.57l-.16.12c-.19,0-.38,0-.57,0-14.13,0-26.04,9.53-29.63,22.52l-.23.17Z"/>
      <path class="cls-5" d="M719.06,241.2h-35.8c-15.16,0-28.75,12.29-30.33,27.45l-1.68,15.98c-1.58,15.16,9.42,27.45,24.58,27.45h35.8c15.16,0,28.73-12.29,30.32-27.45l1.68-15.98c1.58-15.16-9.42-27.45-24.58-27.45ZM720.17,272.55l-.82,8.17c-.78,7.74-7.46,14.03-14.93,14.03h-17.61c-7.47,0-12.88-6.29-12.1-14.03l.82-8.17c.78-7.75,7.47-14.03,14.93-14.03h17.62c7.46,0,12.87,6.28,12.09,14.03Z"/>
      <path class="cls-1" d="M567.62,243.26c-3.14-2.37-7.12-3.76-11.56-3.76h-31.13s-.14.12-.14.12c-.19,0-.38,0-.57,0-.26,0-.52,0-.77.01-13.79.34-25.33,9.76-28.86,22.51l-.23.17-.4,2.61v.02s-.24,1.5-.24,1.5v.05s-2.73,17.75-2.73,17.75l-4.25,27.73h23.39l1.56-11.13.95-5.38h36.99c11.53,0,21.85-9.35,23.06-20.87l2.05-14.22c.74-7.08-2.13-13.34-7.13-17.11ZM557.1,265.18l-.75,5.9c-.72,5.59-6.82,10.13-13.64,10.13h-16.1c-6.82,0-11.77-4.54-11.06-10.13l.75-5.9c.72-5.6,6.82-10.13,13.64-10.13h16.1c6.81,0,11.77,4.53,11.05,10.13Z"/>
    </g>
  </g>
  <g>
    <path class="cls-11" d="M298.73,333.31v22.21h-5.41v-13.32l-4.97,13.32h-4.37l-5-13.35v13.35h-5.41v-22.21h6.39l6.23,15.38,6.17-15.38h6.36Z"/>
    <path class="cls-11" d="M312.31,354.67c-1.38-.74-2.47-1.79-3.26-3.16-.79-1.37-1.19-2.97-1.19-4.81s.4-3.41,1.2-4.79,1.9-2.44,3.29-3.18,2.95-1.11,4.68-1.11,3.29.37,4.68,1.11,2.49,1.8,3.29,3.18,1.2,2.98,1.2,4.79-.41,3.41-1.22,4.79c-.81,1.38-1.92,2.44-3.32,3.18s-2.97,1.11-4.7,1.11-3.29-.37-4.67-1.11ZM319.62,349.96c.73-.76,1.09-1.85,1.09-3.26s-.35-2.5-1.06-3.26c-.71-.76-1.58-1.14-2.61-1.14s-1.93.37-2.63,1.12c-.7.75-1.04,1.84-1.04,3.27s.34,2.5,1.03,3.26c.69.76,1.54,1.14,2.58,1.14s1.91-.38,2.64-1.14Z"/>
    <path class="cls-11" d="M343.37,350.46l3.83-12.59h5.76l-6.26,17.65h-6.68l-6.26-17.65h5.79l3.83,12.59Z"/>
    <path class="cls-11" d="M378.11,347.99h-12.24c.08,1.1.44,1.94,1.06,2.52.62.58,1.39.87,2.29.87,1.35,0,2.29-.57,2.82-1.71h5.76c-.3,1.16-.83,2.2-1.6,3.13s-1.73,1.66-2.9,2.18c-1.16.53-2.46.79-3.89.79-1.73,0-3.27-.37-4.62-1.11s-2.4-1.79-3.16-3.16c-.76-1.37-1.14-2.97-1.14-4.81s.37-3.44,1.12-4.81c.75-1.37,1.8-2.43,3.15-3.16,1.35-.74,2.9-1.11,4.65-1.11s3.23.36,4.56,1.08c1.33.72,2.37,1.74,3.12,3.07s1.12,2.88,1.12,4.65c0,.51-.03,1.03-.1,1.58ZM372.66,344.99c0-.93-.32-1.67-.95-2.21-.63-.55-1.42-.82-2.37-.82s-1.67.26-2.29.79-1.01,1.28-1.15,2.25h6.77Z"/>
    <path class="cls-11" d="M404.08,354.95c-1.29-.53-2.32-1.31-3.08-2.34-.77-1.03-1.18-2.28-1.22-3.73h5.76c.08.82.37,1.45.85,1.88.48.43,1.12.65,1.9.65s1.43-.18,1.9-.55c.46-.37.7-.88.7-1.53,0-.55-.19-1-.55-1.36-.37-.36-.82-.65-1.36-.89-.54-.23-1.3-.5-2.29-.79-1.43-.44-2.61-.89-3.51-1.33-.91-.44-1.69-1.1-2.34-1.96-.65-.86-.98-1.99-.98-3.39,0-2.07.75-3.69,2.25-4.86,1.5-1.17,3.45-1.76,5.85-1.76s4.42.58,5.92,1.76c1.5,1.17,2.3,2.8,2.4,4.89h-5.85c-.04-.72-.31-1.28-.79-1.69-.49-.41-1.11-.62-1.87-.62-.65,0-1.18.17-1.58.52-.4.35-.6.85-.6,1.5,0,.72.34,1.28,1.01,1.68.67.4,1.73.83,3.16,1.3,1.43.49,2.6.95,3.5,1.39.9.44,1.67,1.09,2.33,1.93.65.84.98,1.93.98,3.26s-.32,2.42-.96,3.45c-.64,1.03-1.58,1.86-2.8,2.47-1.22.61-2.67.92-4.33.92s-3.08-.26-4.37-.79Z"/>
    <path class="cls-11" d="M453.96,339.67c1.3,1.33,1.95,3.17,1.95,5.54v10.31h-5.38v-9.59c0-1.14-.3-2.02-.9-2.64s-1.43-.93-2.48-.93-1.88.31-2.48.93c-.6.62-.9,1.5-.9,2.64v9.59h-5.38v-9.59c0-1.14-.3-2.02-.9-2.64s-1.43-.93-2.48-.93-1.88.31-2.48.93-.9,1.5-.9,2.64v9.59h-5.41v-17.65h5.41v2.21c.55-.74,1.27-1.32,2.15-1.76.89-.43,1.89-.65,3.01-.65,1.33,0,2.52.29,3.56.85,1.04.57,1.86,1.38,2.45,2.44.61-.97,1.44-1.76,2.5-2.37,1.05-.61,2.2-.92,3.45-.92,2.19,0,3.94.66,5.24,1.99Z"/>
    <path class="cls-11" d="M465.98,341.89c.69-1.37,1.62-2.43,2.8-3.16,1.18-.74,2.5-1.11,3.95-1.11,1.24,0,2.34.25,3.27.76s1.66,1.17,2.17,1.99v-2.5h5.41v17.65h-5.41v-2.5c-.53.82-1.26,1.49-2.2,1.99-.94.51-2.03.76-3.27.76-1.43,0-2.74-.37-3.92-1.12-1.18-.75-2.12-1.81-2.8-3.2-.69-1.38-1.03-2.98-1.03-4.79s.34-3.41,1.03-4.78ZM477.06,343.5c-.75-.78-1.66-1.17-2.74-1.17s-1.99.39-2.74,1.15c-.75.77-1.12,1.83-1.12,3.18s.37,2.42,1.12,3.21c.75.79,1.66,1.19,2.74,1.19s1.99-.39,2.74-1.17c.75-.78,1.12-1.85,1.12-3.2s-.38-2.42-1.12-3.2Z"/>
    <path class="cls-11" d="M501.62,338.52c.95-.56,2-.84,3.16-.84v5.73h-1.49c-1.35,0-2.36.29-3.04.87-.68.58-1.01,1.6-1.01,3.05v8.19h-5.41v-17.65h5.41v2.94c.63-.97,1.42-1.73,2.37-2.29Z"/>
    <path class="cls-11" d="M523.55,350.94v4.59h-2.75c-1.96,0-3.49-.48-4.59-1.44-1.1-.96-1.65-2.53-1.65-4.7v-7.02h-2.15v-4.49h2.15v-4.3h5.41v4.3h3.54v4.49h-3.54v7.09c0,.53.13.91.38,1.14.25.23.67.35,1.27.35h1.93Z"/>
    <path class="cls-11" d="M549.43,347.99h-12.24c.08,1.1.44,1.94,1.06,2.52.62.58,1.39.87,2.29.87,1.35,0,2.29-.57,2.82-1.71h5.76c-.3,1.16-.83,2.2-1.6,3.13s-1.73,1.66-2.9,2.18c-1.16.53-2.46.79-3.89.79-1.73,0-3.27-.37-4.62-1.11s-2.4-1.79-3.16-3.16c-.76-1.37-1.14-2.97-1.14-4.81s.37-3.44,1.12-4.81c.75-1.37,1.8-2.43,3.15-3.16,1.35-.74,2.9-1.11,4.65-1.11s3.23.36,4.56,1.08c1.33.72,2.37,1.74,3.12,3.07s1.12,2.88,1.12,4.65c0,.51-.03,1.03-.1,1.58ZM543.99,344.99c0-.93-.32-1.67-.95-2.21-.63-.55-1.42-.82-2.37-.82s-1.67.26-2.29.79-1.01,1.28-1.15,2.25h6.77Z"/>
    <path class="cls-11" d="M566.48,338.52c.95-.56,2-.84,3.16-.84v5.73h-1.49c-1.35,0-2.36.29-3.04.87-.68.58-1.01,1.6-1.01,3.05v8.19h-5.41v-17.65h5.41v2.94c.63-.97,1.42-1.73,2.37-2.29Z"/>
  </g>
</svg>